<svg id="visual" viewBox="0 0 960 100" width="960" height="100" xmlns="http://www.w3.org/2000/svg" xmlns:xlink="http://www.w3.org/1999/xlink" version="1.1"><path d="M0 31L20 28C40 25 80 19 120 20.3C160 21.7 200 30.3 240 28.5C280 26.7 320 14.3 360 15.5C400 16.7 440 31.3 480 33.3C520 35.3 560 24.7 600 23.8C640 23 680 32 720 31.7C760 31.3 800 21.7 840 20.5C880 19.3 920 26.7 940 30.3L960 34L960 0L940 0C920 0 880 0 840 0C800 0 760 0 720 0C680 0 640 0 600 0C560 0 520 0 480 0C440 0 400 0 360 0C320 0 280 0 240 0C200 0 160 0 120 0C80 0 40 0 20 0L0 0Z" fill="#4A68FC" stroke-linecap="round" stroke-linejoin="miter"></path></svg>