<svg xmlns="http://www.w3.org/2000/svg" xmlns:xlink="http://www.w3.org/1999/xlink" id="visual" version="1.1" viewBox="0 0 900 44"><path d="M0 28L13.7 27.7C27.3 27.3 54.7 26.7 82 28.2C109.3 29.7 136.7 33.3 163.8 36.3C191 39.3 218 41.7 245.2 38C272.3 34.3 299.7 24.7 327 24.3C354.3 24 381.7 33 409 36.2C436.3 39.3 463.7 36.7 491 32.8C518.3 29 545.7 24 573 24.7C600.3 25.3 627.7 31.7 654.8 33C682 34.3 709 30.7 736.2 27.5C763.3 24.3 790.7 21.7 818 24.5C845.3 27.3 872.7 35.7 886.3 39.8L900 44L900 0L886.3 0C872.7 0 845.3 0 818 0C790.7 0 763.3 0 736.2 0C709 0 682 0 654.8 0C627.7 0 600.3 0 573 0C545.7 0 518.3 0 491 0C463.7 0 436.3 0 409 0C381.7 0 354.3 0 327 0C299.7 0 272.3 0 245.2 0C218 0 191 0 163.8 0C136.7 0 109.3 0 82 0C54.7 0 27.3 0 13.7 0L0 0Z" fill="#f5f5fa" stroke-linecap="round" stroke-linejoin="miter"/></svg>