<svg xmlns="http://www.w3.org/2000/svg" xmlns:xlink="http://www.w3.org/1999/xlink" id="visual" version="1.1" viewBox="0 0 900 42.89"><path d="M0 40L12.5 38C25 36 50 32 75 30.3C100 28.7 125 29.3 150 28C175 26.7 200 23.3 225 21.2C250 19 275 18 300 19C325 20 350 23 375 27.5C400 32 425 38 450 40.8C475 43.7 500 43.3 525 41.3C550 39.3 575 35.7 600 31.8C625 28 650 24 675 24C700 24 725 28 750 31.3C775 34.7 800 37.3 825 36.3C850 35.3 875 30.7 887.5 28.3L900 26L900 0L887.5 0C875 0 850 0 825 0C800 0 775 0 750 0C725 0 700 0 675 0C650 0 625 0 600 0C575 0 550 0 525 0C500 0 475 0 450 0C425 0 400 0 375 0C350 0 325 0 300 0C275 0 250 0 225 0C200 0 175 0 150 0C125 0 100 0 75 0C50 0 25 0 12.5 0L0 0Z" fill="#A7BDCD" stroke-linecap="round" stroke-linejoin="miter"/></svg>